<?xml version="1.0" encoding="UTF-8" standalone="no"?>
<svg
   xmlns:dc="http://purl.org/dc/elements/1.1/"
   xmlns:cc="http://creativecommons.org/ns#"
   xmlns:rdf="http://www.w3.org/1999/02/22-rdf-syntax-ns#"
   xmlns:svg="http://www.w3.org/2000/svg"
   xmlns="http://www.w3.org/2000/svg"
   xmlns:sodipodi="http://sodipodi.sourceforge.net/DTD/sodipodi-0.dtd"
   xmlns:inkscape="http://www.inkscape.org/namespaces/inkscape"
   version="1.2"
   width="810"
   height="424"
   viewBox="0 0 810 424"
   stroke-linecap="round"
   stroke-linejoin="round"
   id="svg1035"
   sodipodi:docname="Kansas_county_map,_cb_500k (1).svg"
   inkscape:version="0.92.3 (2405546, 2018-03-11)">
  <metadata
     id="metadata1041">
    <rdf:RDF>
      <cc:Work
         rdf:about="">
        <dc:format>image/svg+xml</dc:format>
        <dc:type
           rdf:resource="http://purl.org/dc/dcmitype/StillImage" />
      </cc:Work>
    </rdf:RDF>
  </metadata>
  <defs
     id="defs1039" />
  <sodipodi:namedview
     pagecolor="#ffffff"
     bordercolor="#666666"
     borderopacity="1"
     objecttolerance="10"
     gridtolerance="10"
     guidetolerance="10"
     inkscape:pageopacity="0"
     inkscape:pageshadow="2"
     inkscape:window-width="2083"
     inkscape:window-height="1934"
     id="namedview1037"
     showgrid="false"
     inkscape:zoom="1.2875855"
     inkscape:cx="392.46212"
     inkscape:cy="212"
     inkscape:window-x="1736"
     inkscape:window-y="12"
     inkscape:window-maximized="0"
     inkscape:current-layer="Kansas" />
  <g
     id="Kansas"
     transform="translate(5,5)"
     stroke="white"
     stroke-width="1"
     style="fill:#d75d5d;fill-opacity:1">
    <path
       d="M 543.46 68.24 559.24 68.04 582.69 67.73 581.87 70.43 579.29 72.35 577.81 72.17 576.16 74.17 576.66 75.33 574.98 76.55 573.81 80.05 572.53 80 570.71 82.43 569.8 81.95 568.28 84.34 569.18 85.43 568.8 91.18 571.46 94.02 571.71 95.29 574.55 98.22 573.68 98.92 575.28 101.22 577.86 103.78 577.21 104.45 580.21 107.86 581.58 108.29 581.82 109.8 583.45 112.19 585.3 111.24 586.45 113.74 589.88 115.94 589.85 116.84 585.49 117.2 585.82 119.04 590.09 118.35 590.17 120.56 591.81 121.02 593.9 119.59 594.42 121.38 595.78 121.06 596.08 117.95 601.02 118.51 603.48 120.1 603.39 125.8 603.6 137.46 592.07 137.61 592.03 133.72 582.08 133.78 570.6 134 570.55 131.57 566.68 132.1 555.4 132.18 555.4 130.5 557.35 127.93 557.45 125.31 555.5 125.33 555.34 114.65 543.69 114.65 543.46 88.38 543.46 68.24 Z"
       id="Riley"
       fill="#b3c4db"
       style="fill:#7996e2;fill-opacity:1" />
    <path
       d="M 72.6 119.73 81.62 120.02 89.91 120.29 113.02 121.4 142.09 122.33 141.11 145.47 140.32 160.81 139.56 180.36 130.19 180.17 107.07 179.2 98.43 178.76 69.71 177.89 70.65 160.44 71.04 151.38 72.6 119.73 Z"
       id="Logan"
       fill="#b8e0da"
       style="fill:#d72f30;fill-opacity:1" />
    <path
       d="M 8.34 234.04 38.68 235.34 58.69 236.06 61.35 236.16 60.48 261.35 59.02 294.48 60.69 294.54 60.21 306.77 38.94 305.83 5.47 304.18 5.76 295.47 7.02 263.07 8.34 234.04 Z"
       id="Hamilton"
       fill="#b1e486"
       style="fill:#d75d5d;fill-opacity:1" />
    <path
       d="M 582.69 67.73 618.1 67.11 639.15 66.69 639.84 92.11 640.21 113.52 640.43 125.14 640.11 125.59 639.55 123.63 638.19 123.64 634.9 122.24 635.33 120.76 637.94 120.5 635.27 116.71 633.08 115.87 630.85 117.66 628.05 116.99 625.79 117.54 624.84 115.12 622.58 116.13 620.99 116.01 619.58 114.52 618.22 115.59 616.29 118.82 614.61 118.45 613.31 116.89 611.53 116.86 610.15 118.21 609.53 120.95 607.95 122.56 606.72 122.23 603.48 120.1 601.02 118.51 596.08 117.95 595.78 121.06 594.42 121.38 593.9 119.59 591.81 121.02 590.17 120.56 590.09 118.35 585.82 119.04 585.49 117.2 589.85 116.84 589.88 115.94 586.45 113.74 585.3 111.24 583.45 112.19 581.82 109.8 581.58 108.29 580.21 107.86 577.21 104.45 577.86 103.78 575.28 101.22 573.68 98.92 574.55 98.22 571.71 95.29 571.46 94.02 568.8 91.18 569.18 85.43 568.28 84.34 569.8 81.95 570.71 82.43 572.53 80 573.81 80.05 574.98 76.55 576.66 75.33 576.16 74.17 577.81 72.17 579.29 72.35 581.87 70.43 582.69 67.73 Z"
       id="Pottawatomie"
       fill="#cbdc93"
       style="fill:#d75d5d;fill-opacity:1" />
    <path
       d="M 651.36 253.4 651.13 241.51 652.03 241.49 651.47 218.13 664.95 217.86 680.59 217.38 698.04 216.99 698.19 222.83 698.77 240.38 697.79 240.4 698.37 270.02 679.01 270.42 651.74 270.92 651.36 253.4 Z"
       id="Coffey"
       fill="#e4c9a0"
       style="fill:#e27f7f;fill-opacity:1" />
    <path
       d="M 60.21 306.77 95.15 308.07 106.73 308.46 105.87 331.81 105.13 355.15 94.81 354.8 58.53 353.36 59.05 339.82 60.21 306.77 Z"
       id="Grant"
       fill="#94bbeb"
       style="fill:#d75d5d;fill-opacity:1" />
    <path
       d="M 199.41 275.7 199.07 287.36 198.75 299.03 200.1 299.07 199.47 322.76 198.78 346.17 181.34 345.8 152.18 344.96 153.25 309.95 153.67 297.57 152.24 297.51 153.03 274.25 176.2 275.15 199.41 275.7 Z"
       id="Gray"
       fill="#d8e9e9"
       style="fill:#d75d5d;fill-opacity:1" />
    <path
       d="M 10.86 175.79 30.84 176.62 61.03 177.62 58.69 236.06 38.68 235.34 8.34 234.04 9.39 208.44 10.86 175.79 Z"
       id="Greeley"
       fill="#cdec98"
       style="fill:#d75d5d;fill-opacity:1" />
    <path
       d="M 269.31 67.27 307.45 67.85 324.89 67.98 327.16 68.02 327.02 79.74 326.36 108.8 326.14 126.3 295.38 125.93 269.37 125.56 267.97 125.52 268.42 102.1 268.87 90.44 269.17 78.83 269.31 67.27 Z"
       id="Rooks"
       fill="#d5bca5"
       style="fill:#d75d5d;fill-opacity:1" />
    <path
       d="M 698.79 310.95 729.81 310.09 737.59 309.62 745.33 309.61 745.58 317.37 746.82 356.31 700.54 357.66 700.06 357.68 699.67 341.16 699.16 326.48 698.79 310.95 Z"
       id="Neosho"
       fill="#dbe5d2"
       style="fill:#e27f7f;fill-opacity:1" />
    <path
       d="M 211.34 124.39 223.05 124.72 267.97 125.52 269.37 125.56 268.7 147.05 268.21 166.47 267.65 183.94 222.64 183.07 209.34 182.62 210.11 159.35 210.78 141.84 211.34 124.39 Z"
       id="Trego"
       fill="#9a94d1"
       style="fill:#d75d5d;fill-opacity:1" />
    <path
       d="M 199.07 287.36 222.18 288.04 268.82 288.95 268.54 300.66 269.64 300.68 269.5 312.84 269.25 348.64 249.8 348.35 240.88 348 210.42 346.5 198.78 346.17 199.47 322.76 200.1 299.07 198.75 299.03 199.07 287.36 Z"
       id="Ford"
       fill="#e8ead8"
       style="fill:#d75d5d;fill-opacity:1" />
    <path
       d="M 616.95 8.9 625.69 8.75 663.43 7.91 664.1 38.84 664.48 54.46 664.75 66.12 639.15 66.69 618.1 67.11 617.8 55.45 616.95 8.9 Z"
       id="Nemaha"
       fill="#bbea90"
       style="fill:#d75d5d;fill-opacity:1" />
    <path
       d="M 83.98 3.82 81.49 61.92 32.12 59.93 15.6 59.23 17.1 21.52 18 1 39.7 1.99 83.98 3.82 Z"
       id="Cheyenne"
       fill="#cde2b7"
       style="fill:#d72f30;fill-opacity:1" />
    <path
       d="M 386 314.44 407.32 314.54 455.92 314.38 456.06 325.08 455.89 326.05 456.02 349.18 456.1 360.96 421.02 361.24 398.06 361.21 385.75 361.15 385.84 349.5 386 314.44 Z"
       id="Kingman"
       fill="#c4e4e2"
       style="fill:#d75d5d;fill-opacity:1" />
    <path
       d="M 698.37 270.02 733.42 269.06 745.09 268.69 745.55 290.1 745.84 297.88 744.96 297.93 745.33 309.61 737.59 309.62 729.81 310.09 698.79 310.95 698.54 299.23 699.13 299.22 698.37 270.02 Z"
       id="Allen"
       fill="#cee8ef"
       style="fill:#e27f7f;fill-opacity:1" />
    <path
       d="M 384.68 161.93 407.95 161.98 417.71 162.1 442.95 162.02 442.98 185.35 443.33 185.37 443.38 197.02 443.44 208.69 433.56 208.77 396.58 208.75 384.91 208.69 385.07 185.23 384.43 185.23 384.68 161.93 Z"
       id="Ellsworth"
       fill="#c7d5e6"
       style="fill:#e27f7f;fill-opacity:1" />
    <path
       d="M 698.19 222.83 719.73 222.24 744.84 221.48 745.49 239.06 744.39 239.09 745.09 268.69 733.42 269.06 698.37 270.02 697.79 240.4 698.77 240.38 698.19 222.83 Z"
       id="Anderson"
       fill="#bce4ec"
       style="fill:#e27f7f;fill-opacity:1" />
    <path
       d="M 442.85 103.7 489.55 103.53 501.07 103.52 501.09 126.85 501.21 150.17 478.01 150.3 442.94 150.33 442.9 128.94 442.77 127 442.79 115.37 442.59 107.62 442.85 103.7 Z"
       id="Ottawa"
       fill="#f3d7d4"
       style="fill:#d75d5d;fill-opacity:1" />
    <path
       d="M 327.01 184.77 361.82 185.11 384.43 185.23 385.07 185.23 384.91 208.69 384.8 222.31 384.78 243.66 361.44 243.5 339.06 243.27 326.41 243.12 326.54 231.45 327.01 184.77 Z"
       id="Barton"
       fill="#cee9e7"
       style="fill:#d75d5d;fill-opacity:1" />
    <path
       d="M 152.18 344.96 181.34 345.8 198.78 346.17 210.42 346.5 210.12 358.25 211.82 358.32 211.05 393.47 210.85 409.89 198.79 409.6 152.4 408.65 152.62 393.87 153.31 370.31 153.85 356.71 151.83 356.65 152.18 344.96 Z"
       id="Meade"
       fill="#e8c7b1"
       style="fill:#d75d5d;fill-opacity:1" />
    <path
       d="M 61.03 177.62 69.71 177.89 98.43 178.76 107.07 179.2 105.91 214.27 105.36 237.6 61.35 236.16 58.69 236.06 61.03 177.62 Z"
       id="Wichita"
       fill="#f4ddd3"
       style="fill:#d72f30;fill-opacity:1" />
    <path
       d="M 106.73 308.46 122.23 308.92 153.25 309.95 152.18 344.96 151.83 356.65 107.44 355.23 105.13 355.15 105.87 331.81 106.73 308.46 Z"
       id="Haskell"
       fill="#b6a8f0"
       style="fill:#d72f30;fill-opacity:1" />
    <path
       d="M 467.01 255.4 501.92 255.24 513.38 254.99 525.05 254.92 525.18 266.57 525.44 290.01 503.04 290.27 467.12 290.42 467.11 290.57 467.01 255.4 Z"
       id="Harvey"
       fill="#e7d5a7"
       style="fill:#e27f7f;fill-opacity:1" />
    <path
       d="M 210.42 346.5 240.88 348 249.8 348.35 269.25 348.64 269.09 360.25 270.44 360.27 270.09 370.93 269.92 385.59 269.94 395.48 269.79 411.4 233.86 410.45 210.85 409.89 211.05 393.47 211.82 358.32 210.12 358.25 210.42 346.5 Z"
       id="Clark"
       fill="#f1c9ad"
       style="fill:#d75d5d;fill-opacity:1" />
    <path
       d="M 384.92 68.58 419.17 68.75 442.54 68.79 442.89 68.79 442.8 92.02 442.85 103.7 442.59 107.62 442.79 115.37 439.49 115.44 396.08 115.27 384.38 115.17 384.55 91.87 384.92 68.58 Z"
       id="Mitchell"
       fill="#a5a7e4"
       style="fill:#d75d5d;fill-opacity:1" />
    <path
       d="M 443.44 208.69 443.38 197.02 475.26 197.07 501.5 196.87 501.92 255.24 467.01 255.4 443.71 255.46 443.69 244.78 443.37 243.83 443.44 232.12 443.44 208.69 Z"
       id="McPherson"
       fill="#c6edcf"
       style="fill:#e27f7f;fill-opacity:1" />
    <path
       d="M 107.7 237.68 128.68 238.29 151.9 239.15 175.17 239.94 198.39 240.66 200.21 240.71 199.81 264.03 199.41 275.7 176.2 275.15 153.03 274.25 152.24 297.51 153.67 297.57 153.25 309.95 122.23 308.92 106.73 308.46 107.13 296.04 105.65 296 106.97 261 107.7 237.68 Z"
       id="Finney"
       fill="#abe3a6"
       style="fill:#d75d5d;fill-opacity:1" />
    <path
       d="M 327.09 278.1 338.65 278.19 339.06 243.27 361.44 243.5 384.78 243.66 385.56 243.67 385.46 255.46 385.37 290.46 385.27 302.13 365.59 302.02 350.18 301.78 327.77 301.54 326.78 301.53 327.09 278.1 Z"
       id="Stafford"
       fill="#8e94e1"
       style="fill:#d75d5d;fill-opacity:1" />
    <path
       d="M 651 177.26 650.54 159.74 666.08 159.52 677.7 159.07 697.22 158.58 697.71 176.13 697.82 181.96 697.1 181.98 697.13 186.85 698.04 216.99 680.59 217.38 664.95 217.86 651.47 218.13 650.74 183.13 651 177.26 Z"
       id="Osage"
       fill="#c6a2a0"
       style="fill:#ffb2b2;fill-opacity:1" />
    <path
       d="M 199.54 182.27 209.34 182.62 222.64 183.07 267.65 183.94 269.04 183.96 268.56 203.19 268.26 230.46 268.12 242.15 235.11 241.61 219.29 241.25 200.21 240.71 198.39 240.66 199.2 190.14 199.54 182.27 Z"
       id="Ness"
       fill="#a0abe9"
       style="fill:#d72f30;fill-opacity:1" />
    <path
       d="M 61.35 236.16 105.36 237.6 107.7 237.68 106.97 261 105.65 296 107.13 296.04 106.73 308.46 95.15 308.07 60.21 306.77 60.69 294.54 59.02 294.48 60.48 261.35 61.35 236.16 Z"
       id="Kearny"
       fill="#9fc4c7"
       style="fill:#d72f30;fill-opacity:1" />
    <path
       d="M 211.03 7.84 248.57 8.69 267.96 9 267.6 20.64 266.98 46.74 266.64 67.2 240.29 66.76 216.74 66.26 211.3 66.07 209.36 66.07 210.1 36.98 211.03 7.84 Z"
       id="Norton"
       fill="#d5d6f7"
       style="fill:#d75d5d;fill-opacity:1" />
    <path
       d="M 327.2 126.3 384.34 126.84 384.99 126.84 384.73 141.6 384.68 161.93 384.43 185.23 361.82 185.11 327.01 184.77 326 184.75 326.6 162.37 326.55 161.39 327.2 126.3 Z"
       id="Russell"
       fill="#c7f1bc"
       style="fill:#d75d5d;fill-opacity:1" />
    <path
       d="M 442.94 150.33 478.01 150.3 501.21 150.17 501.2 156.03 501.5 196.87 475.26 197.07 443.38 197.02 443.33 185.37 442.98 185.35 442.95 162.02 442.94 150.33 Z"
       id="Saline"
       fill="#ccdfe7"
       style="fill:#ffb2b2;fill-opacity:1" />
    <path
       d="M 639.15 66.69 664.75 66.12 664.48 54.46 687.76 53.88 688.06 65.54 687.43 65.55 687.96 85.22 685.99 85.27 686.7 112.46 681.84 112.54 640.21 113.52 639.84 92.11 639.15 66.69 Z"
       id="Jackson"
       fill="#cad1f8"
       style="fill:#ffb2b2;fill-opacity:1" />
    <path
       d="M 593.4 370.9 612.7 370.68 618.49 370.71 631.14 370.45 653.4 370.2 653.98 397.38 654.32 410.42 628.98 410.96 593.98 411.64 593.4 370.9 Z"
       id="Chautauqua"
       fill="#f1c1ac"
       style="fill:#d75d5d;fill-opacity:1" />
    <path
       d="M 383.48 10.3 442.5 10.48 442.52 22.22 442.35 33.88 442.57 57.15 442.54 68.79 419.17 68.75 384.92 68.58 383.07 68.55 383.4 33.62 383.48 10.3 Z"
       id="Jewell"
       fill="#a0eaa0"
       style="fill:#d75d5d;fill-opacity:1" />
    <path
       d="M 700.54 357.66 746.82 356.31 748.23 356.26 748.4 362.14 748.92 375.24 750.05 407.74 714.14 408.87 701.81 409.21 701.2 383.15 701.35 375.37 700.54 357.66 Z"
       id="Labette"
       fill="#e9dec5"
       style="fill:#e27f7f;fill-opacity:1" />
    <path
       d="M 501.21 150.17 501.09 126.85 519.09 126.49 543.67 126.41 543.89 148.84 545.68 147.48 547.75 147.52 547.89 161.46 551.71 161.45 551.81 169.21 547.93 169.26 548.1 184.82 547.55 190.01 547.86 190.92 547.93 196.43 537.56 196.6 501.5 196.87 501.2 156.03 501.21 150.17 Z"
       id="Dickinson"
       fill="#cfdbb3"
       style="fill:#e27f7f;fill-opacity:1" />
    <path
       d="M 268.26 230.46 291.78 230.84 303.7 230.84 314.93 231.27 326.54 231.45 326.41 243.12 339.06 243.27 338.65 278.19 327.09 278.1 303.92 277.85 292.3 277.57 292.47 265.94 280.87 265.68 269.26 265.59 269.57 242.18 268.12 242.15 268.26 230.46 Z"
       id="Pawnee"
       fill="#dbf1e7"
       style="fill:#e27f7f;fill-opacity:1" />
    <path
       d="M 153.28 180.76 178.42 181.51 199.54 182.27 199.2 190.14 198.39 240.66 175.17 239.94 151.9 239.15 153.28 180.76 Z"
       id="Lane"
       fill="#b1d9cd"
       style="fill:#d75d5d;fill-opacity:1" />
    <path
       d="M 501.07 103.52 500.96 68.55 520.45 68.46 543.46 68.24 543.46 88.38 543.69 114.65 543.67 126.41 519.09 126.49 501.09 126.85 501.07 103.52 Z"
       id="Clay"
       fill="#8cd4d9"
       style="fill:#e27f7f;fill-opacity:1" />
    <path
       d="M 269.5 312.84 304.34 313.59 327.6 313.92 327.28 325.86 327.31 349.1 327.3 360.65 292.39 360.47 270.44 360.27 269.09 360.25 269.25 348.64 269.5 312.84 Z"
       id="Kiowa"
       fill="#e8e1ac"
       style="fill:#d75d5d;fill-opacity:1" />
    <path
       d="M 653.4 370.2 653.11 358.49 653.44 358.48 685.07 358 700.06 357.68 700.54 357.66 701.35 375.37 701.2 383.15 701.81 409.21 671.12 410.02 654.32 410.42 653.98 397.38 653.4 370.2 Z"
       id="Montgomery"
       fill="#f5e3cd"
       style="fill:#d75d5d;fill-opacity:1" />
    <path
       d="M 745.58 317.37 751.39 317.13 795.65 315.82 796.51 336.12 797.34 360.64 792.14 360.85 766.62 361.53 748.4 362.14 748.23 356.26 746.82 356.31 745.58 317.37 Z"
       id="Crawford"
       fill="#c8e9c4"
       style="fill:#7996e2;fill-opacity:1" />
    <path
       d="M 384.91 208.69 396.58 208.75 433.56 208.77 443.44 208.69 443.44 232.12 443.37 243.83 443.69 244.78 443.71 255.46 437.86 255.55 420.42 255.43 420.43 257.35 412.63 257.44 412.62 255.47 385.46 255.46 385.56 243.67 384.78 243.66 384.8 222.31 384.91 208.69 Z"
       id="Rice"
       fill="#f1f2cb"
       style="fill:#e27f7f;fill-opacity:1" />
    <path
       d="M 744.84 221.48 767.24 220.87 792.54 219.98 793.46 242.88 793.68 251.98 794.23 267.07 776 267.66 758.39 268.34 745.09 268.69 744.39 239.09 745.49 239.06 744.84 221.48 Z"
       id="Linn"
       fill="#c9dfd9"
       style="fill:#d75d5d;fill-opacity:1" />
    <path
       d="M 385.46 255.46 412.62 255.47 412.63 257.44 420.43 257.35 420.42 255.43 437.86 255.55 443.71 255.46 467.01 255.4 467.11 290.57 467.13 302.12 467.39 302.12 467.54 314.19 455.92 314.38 407.32 314.54 386 314.44 386.06 302.13 385.27 302.13 385.37 290.46 385.46 255.46 Z"
       id="Reno"
       fill="#e0e6ec"
       style="fill:#e27f7f;fill-opacity:1" />
    <path
       d="M 591.91 265.89 609.35 265.67 609.22 254.03 621.59 253.78 651.36 253.4 651.74 270.92 652.49 300.15 652.14 300.16 652.47 311.9 652.85 329.39 608.68 329.85 592.69 330.12 592.38 315.9 592.09 293.11 592.09 283.37 591.91 265.89 Z"
       id="Greenwood"
       fill="#abea9a"
       style="fill:#d75d5d;fill-opacity:1" />
    <path
       d="M 592.69 330.12 608.68 329.85 652.85 329.39 652.99 343.02 653.44 358.48 653.11 358.49 653.4 370.2 631.14 370.45 618.49 370.71 612.7 370.68 593.4 370.9 592.93 347.62 592.69 330.12 Z"
       id="Elk"
       fill="#ddefea"
       style="fill:#e27f7f;fill-opacity:1" />
    <path
       d="M 3.42 350.95 40.99 352.63 55.24 353.22 53.31 405.87 24.16 404.86 1 404 3.16 355.85 3.42 350.95 Z"
       id="Morton"
       fill="#b1dec6"
       style="fill:#d75d5d;fill-opacity:1" />
    <path
       d="M 608.74 207.27 608.33 178.15 617.44 178 651 177.26 650.74 183.13 651.47 218.13 652.03 241.49 651.13 241.51 651.36 253.4 621.59 253.78 609.22 254.03 609.2 242.28 608.74 207.27 Z"
       id="Lyon"
       fill="#cbe8db"
       style="fill:#7996e2;fill-opacity:1" />
    <path
       d="M 501.5 196.87 537.56 196.6 547.93 196.43 548.1 208.08 559.72 207.93 560.03 231.23 558.11 231.24 558.25 242.73 557.92 242.95 558.24 266.48 548.56 266.58 525.18 266.57 525.05 254.92 513.38 254.99 501.92 255.24 501.5 196.87 Z"
       id="Marion"
       fill="#b0d0de"
       style="fill:#e27f7f;fill-opacity:1" />
    <path
       d="M 83.98 3.82 132.76 5.56 153.22 6.19 152.51 24.4 151.25 64.34 140.48 64.05 112.56 63.08 84.07 62.02 81.49 61.92 83.98 3.82 Z"
       id="Rawlins"
       fill="#dedfee"
       style="fill:#d72f30;fill-opacity:1" />
    <path
       d="M 743.27 142.15 744.93 143.16 746.22 142.53 746.79 139.68 747.87 139.49 751.16 140.51 752.82 141.83 754.55 141.49 756.18 139.17 758.64 140.39 760.65 137 760.3 135.07 761 132.36 763.13 130.92 765.58 130.96 769.41 133.03 789.86 132.21 790.08 140.55 790.93 161.2 791.18 173.18 755.93 174.41 744.31 174.76 743.27 142.15 Z"
       id="Johnson"
       fill="#f1dcdb"
       style="fill:#ffb2b2;fill-opacity:1" />
    <path
       d="M 398.06 361.21 421.02 361.24 456.1 360.96 456.37 360.96 456.68 385.19 456.72 412.91 423.43 413 398.15 412.96 398.06 361.21 Z"
       id="Harper"
       fill="#e9a987"
       style="fill:#d75d5d;fill-opacity:1" />
    <path
       d="M 687.76 53.88 711 53.21 733.2 52.55 735.93 54.81 736.16 56.74 737.49 57.48 740.81 57.34 741.59 59.15 740.6 62 738.56 62.58 737.21 62.05 735.39 63.07 734.84 65.76 736.03 68.48 738.76 71.05 740.65 71.98 741.7 73.52 742.07 76.11 743.56 77.95 748.11 79.77 750.45 83.33 728.42 84.02 699.41 84.65 687.96 85.22 687.43 65.55 688.06 65.54 687.76 53.88 Z"
       id="Atchison"
       fill="#cbdae2"
       style="fill:#e27f7f;fill-opacity:1" />
    <path
       d="M 153.22 6.19 181.05 7.05 211.03 7.84 210.1 36.98 209.36 66.07 180.98 65.25 153.39 64.4 151.25 64.34 152.51 24.4 153.22 6.19 Z"
       id="Decatur"
       fill="#c4dabe"
       style="fill:#d72f30;fill-opacity:1" />
    <path
       d="M 455.92 314.38 467.54 314.19 467.39 302.12 467.13 302.12 467.11 290.57 467.12 290.42 503.04 290.27 525.44 290.01 525.85 336.87 525.9 348.6 514.57 348.7 502.86 348.55 491.21 348.83 456.02 349.18 455.89 326.05 456.06 325.08 455.92 314.38 Z"
       id="Sedgwick"
       fill="#f7e0c1"
       style="fill:#ffb2b2;fill-opacity:1" />
    <path
       d="M 663.43 7.91 709.61 6.73 711 53.21 687.76 53.88 664.48 54.46 664.1 38.84 663.43 7.91 Z"
       id="Brown"
       fill="#d2eab4"
       style="fill:#e27f7f;fill-opacity:1" />
    <path
       d="M 211.3 66.07 216.74 66.26 240.29 66.76 266.64 67.2 269.31 67.27 269.17 78.83 268.87 90.44 268.42 102.1 267.97 125.52 223.05 124.72 211.34 124.39 209.64 124.36 210.7 89.42 211.3 66.07 Z"
       id="Graham"
       fill="#dbdaf1"
       style="fill:#d75d5d;fill-opacity:1" />
    <path
       d="M 748.4 362.14 766.62 361.53 792.14 360.85 797.34 360.64 798.01 380.68 799 406.11 786.19 406.62 750.05 407.74 748.92 375.24 748.4 362.14 Z"
       id="Cherokee"
       fill="#bed3f0"
       style="fill:#e27f7f;fill-opacity:1" />
    <path
       d="M 269.37 125.56 295.38 125.93 326.14 126.3 327.2 126.3 326.55 161.39 326.6 162.37 326 184.75 285.44 184.21 269.04 183.96 267.65 183.94 268.21 166.47 268.7 147.05 269.37 125.56 Z"
       id="Ellis"
       fill="#bebcdd"
       style="fill:#e27f7f;fill-opacity:1" />
    <path
       d="M 84.07 62.02 112.56 63.08 140.48 64.05 151.25 64.34 153.39 64.4 151.75 114.86 151.53 122.62 142.09 122.33 113.02 121.4 89.91 120.29 81.62 120.02 83.02 85.13 84.07 62.02 Z"
       id="Thomas"
       fill="#c0bbdd"
       style="fill:#d75d5d;fill-opacity:1" />
    <path
       d="M 500.49 10.25 513.27 10.23 533.42 10.06 558.56 9.76 558.98 48.63 559.24 68.04 543.46 68.24 520.45 68.46 500.96 68.55 500.87 56.89 500.49 10.25 Z"
       id="Washington"
       fill="#a1b2e8"
       style="fill:#d75d5d;fill-opacity:1" />
    <path
       d="M 267.96 9 314.9 9.72 325.5 9.81 324.89 67.98 307.45 67.85 269.31 67.27 266.64 67.2 266.98 46.74 267.6 20.64 267.96 9 Z"
       id="Phillips"
       fill="#a4d6a4"
       style="fill:#d75d5d;fill-opacity:1" />
    <path
       d="M 744.31 174.76 755.93 174.41 791.18 173.18 791.53 188.94 792.54 219.98 767.24 220.87 744.84 221.48 743.91 190 743.52 180.64 744.48 180.61 744.31 174.76 Z"
       id="Miami"
       fill="#bad3a2"
       style="fill:#e27f7f;fill-opacity:1" />
    <path
       d="M 592.07 137.61 603.6 137.46 603.39 125.8 603.48 120.1 606.72 122.23 607.95 122.56 609.53 120.95 610.15 118.21 611.53 116.86 613.31 116.89 614.61 118.45 616.29 118.82 618.22 115.59 619.58 114.52 620.99 116.01 622.58 116.13 624.84 115.12 625.79 117.54 628.05 116.99 630.85 117.66 633.08 115.87 635.27 116.71 637.94 120.5 635.33 120.76 634.9 122.24 638.19 123.64 639.55 123.63 640.11 125.59 644.52 127.74 647.09 127.44 649.82 129.1 650.54 159.74 651 177.26 617.44 178 608.33 178.15 604.44 178.22 604.16 166.59 592.53 166.74 592.42 160.91 592.07 137.61 Z"
       id="Wabaunsee"
       fill="#b7d6dc"
       style="fill:#e27f7f;fill-opacity:1" />
    <path
       d="M 442.5 10.48 485.83 10.36 500.49 10.25 500.87 56.89 476.93 57.12 442.57 57.15 442.35 33.88 442.52 22.22 442.5 10.48 Z"
       id="Republic"
       fill="#c9f6bd"
       style="fill:#d75d5d;fill-opacity:1" />
    <path
       d="M 15.6 59.23 32.12 59.93 81.49 61.92 84.07 62.02 83.02 85.13 81.62 120.02 72.6 119.73 47.62 118.89 13.27 117.48 14.78 78.62 15.6 59.23 Z"
       id="Sherman"
       fill="#a0b8c6"
       style="fill:#d72f30;fill-opacity:1" />
    <path
       d="M 652.85 329.39 652.47 311.9 698.79 310.95 699.16 326.48 699.67 341.16 700.06 357.68 685.07 358 653.44 358.48 652.99 343.02 652.85 329.39 Z"
       id="Wilson"
       fill="#9c97de"
       style="fill:#d75d5d;fill-opacity:1" />
    <path
       d="M 745.33 309.61 744.96 297.93 745.84 297.88 745.55 290.1 745.09 268.69 758.39 268.34 776 267.66 794.23 267.07 794.62 279.48 795.15 302.45 795.65 315.82 751.39 317.13 745.58 317.37 745.33 309.61 Z"
       id="Bourbon"
       fill="#bdf0d8"
       style="fill:#e27f7f;fill-opacity:1" />
    <path
       d="M 269.04 183.96 285.44 184.21 326 184.75 327.01 184.77 326.54 231.45 314.93 231.27 303.7 230.84 291.78 230.84 268.26 230.46 268.56 203.19 269.04 183.96 Z"
       id="Rush"
       fill="#c8b39d"
       style="fill:#d75d5d;fill-opacity:1" />
    <path
       d="M 107.44 355.23 151.83 356.65 153.85 356.71 153.31 370.31 152.62 393.87 152.4 408.65 141.52 408.44 105.84 407.45 106.69 378.56 107.44 355.23 Z"
       id="Seward"
       fill="#e99181"
       style="fill:#d75d5d;fill-opacity:1" />
    <path
       d="M 442.57 57.15 476.93 57.12 500.87 56.89 500.96 68.55 501.07 103.52 489.55 103.53 442.85 103.7 442.8 92.02 442.89 68.79 442.54 68.79 442.57 57.15 Z"
       id="Cloud"
       fill="#add8ca"
       style="fill:#e27f7f;fill-opacity:1" />
    <path
       d="M 13.27 117.48 47.62 118.89 72.6 119.73 71.04 151.38 70.65 160.44 69.71 177.89 61.03 177.62 30.84 176.62 10.86 175.79 11.54 160.29 13.27 117.48 Z"
       id="Wallace"
       fill="#b4cbdf"
       style="fill:#c21b18;fill-opacity:1" />
    <path
       d="M 558.56 9.76 582.77 9.44 616.95 8.9 617.8 55.45 618.1 67.11 582.69 67.73 559.24 68.04 558.98 48.63 558.56 9.76 Z"
       id="Marshall"
       fill="#97e892"
       style="fill:#e27f7f;fill-opacity:1" />
    <path
       d="M 697.71 176.13 732.66 175.15 744.31 174.76 744.48 180.61 743.52 180.64 743.91 190 744.84 221.48 719.73 222.24 698.19 222.83 698.04 216.99 697.13 186.85 697.1 181.98 697.82 181.96 697.71 176.13 Z"
       id="Franklin"
       fill="#b8adf0"
       style="fill:#e27f7f;fill-opacity:1" />
    <path
       d="M 327.6 313.92 327.77 301.54 350.18 301.78 365.59 302.02 385.27 302.13 386.06 302.13 386 314.44 385.84 349.5 368.28 349.46 359.48 349.32 341.53 349.28 327.31 349.1 327.28 325.86 327.6 313.92 Z"
       id="Pratt"
       fill="#c1ddd3"
       style="fill:#e27f7f;fill-opacity:1" />
    <path
       d="M 107.07 179.2 130.19 180.17 139.56 180.36 153.28 180.76 151.9 239.15 128.68 238.29 107.7 237.68 105.36 237.6 105.91 214.27 107.07 179.2 Z"
       id="Scott"
       fill="#bce5f6"
       style="fill:#d72f30;fill-opacity:1" />
    <path
       d="M 551.71 161.45 571.12 161.16 592.42 160.91 592.53 166.74 604.16 166.59 604.44 178.22 608.33 178.15 608.74 207.27 589.78 207.59 559.72 207.93 548.1 208.08 547.93 196.43 547.86 190.92 547.55 190.01 548.1 184.82 547.93 169.26 551.81 169.21 551.71 161.45 Z"
       id="Morris"
       fill="#a9cfe6"
       style="fill:#ffb2b2;fill-opacity:1" />
    <path
       d="M 728.42 84.02 750.45 83.33 752.85 85.05 752.98 86.63 755.35 87.8 757.53 86.61 759.29 86.95 759.97 88.82 757.61 90.96 756.82 92.6 757.2 95.89 758.14 99.01 760.49 101.48 763.88 103.06 765.48 104.64 766.15 106.57 765.27 109 766.5 110.83 770.3 110.99 771.57 111.89 758.57 112.04 758.78 121.98 758.07 122.01 758.64 140.39 756.18 139.17 754.55 141.49 752.82 141.83 751.16 140.51 747.87 139.49 746.79 139.68 746.22 142.53 744.93 143.16 743.27 142.15 741.94 141.52 740.1 142.5 741.44 144.59 740.36 146.03 738.32 145.4 737.61 144.04 731.96 143.93 729.76 144.93 729.33 134.28 728.89 122.93 729.71 122.9 728.58 85.96 728.42 84.02 Z"
       id="Leavenworth"
       fill="#d8dfc4"
       style="fill:#e27f7f;fill-opacity:1" />
    <path
       d="M 200.21 240.71 219.29 241.25 235.11 241.61 268.12 242.15 269.57 242.18 269.26 265.59 268.82 288.95 222.18 288.04 199.07 287.36 199.41 275.7 199.81 264.03 200.21 240.71 Z"
       id="Hodgeman"
       fill="#efd9d8"
       style="fill:#d72f30;fill-opacity:1" />
    <path
       d="M 559.72 207.93 589.78 207.59 608.74 207.27 609.2 242.28 609.22 254.03 609.35 265.67 591.91 265.89 558.24 266.48 557.92 242.95 558.25 242.73 558.11 231.24 560.03 231.23 559.72 207.93 Z"
       id="Chase"
       fill="#b4c0d6"
       style="fill:#e27f7f;fill-opacity:1" />
    <path
       d="M 771.57 111.89 772.96 114.62 775.78 115.95 778.11 115.7 780.85 113.85 782.74 113.98 783.82 115 783.65 116.53 785.94 117.66 789.15 116.55 791.32 117.97 791.22 119.43 789.41 122.32 789.86 132.21 769.41 133.03 765.58 130.96 763.13 130.92 761 132.36 760.3 135.07 760.65 137 758.64 140.39 758.07 122.01 758.78 121.98 758.57 112.04 771.57 111.89 Z"
       id="Wyandotte"
       fill="#98bbec"
       style="fill:#6674de;fill-opacity:1" />
    <path
       d="M 709.61 6.73 712.87 6.63 713.53 8.71 716.95 10.61 718.27 12.52 719.99 13.8 722.17 13.8 724.17 15.11 723.82 18.6 726.56 19.61 728.56 18.62 730.23 19.25 730.65 21.95 731.96 22.92 736.83 24.43 741.33 23.77 742.32 22.94 743.15 19.44 746.09 19.39 749.27 18.66 750.87 19.08 752.58 20.64 751.2 24.64 753.94 27.29 757.05 27.59 758.11 28.81 758.26 31.06 756.62 33.24 753.25 33.53 752.43 35.72 754.29 37.36 756.11 37.26 757.9 35.86 760.08 36.88 759.94 39.58 758.69 41.29 755.93 42.23 752.06 40.03 750.38 39.54 748.88 41.41 749.2 46.65 747.7 48.73 745.14 49.09 743.25 50.54 741.11 54.3 740.81 57.34 737.49 57.48 736.16 56.74 735.93 54.81 733.2 52.55 711 53.21 709.61 6.73 Z"
       id="Doniphan"
       fill="#bdebce"
       style="fill:#d75d5d;fill-opacity:1" />
    <path
       d="M 327.31 349.1 341.53 349.28 359.48 349.32 368.28 349.46 385.84 349.5 385.75 361.15 398.06 361.21 398.15 412.96 376.89 412.72 358.65 412.58 327.93 412.23 328.08 388 328.07 378.65 328.39 360.66 327.3 360.65 327.31 349.1 Z"
       id="Barber"
       fill="#a9ebbd"
       style="fill:#d75d5d;fill-opacity:1" />
    <path
       d="M 5.47 304.18 38.94 305.83 60.21 306.77 59.05 339.82 58.53 353.36 55.24 353.22 40.99 352.63 3.42 350.95 5.47 304.18 Z"
       id="Stanton"
       fill="#dce8ca"
       style="fill:#d72f30;fill-opacity:1" />
    <path
       d="M 640.21 113.52 681.84 112.54 686.7 112.46 687.02 124.1 686.46 124.1 686.48 132.76 688.02 134.15 691.47 132.14 695.12 132.19 696.58 133.56 697.22 158.58 677.7 159.07 666.08 159.52 650.54 159.74 649.82 129.1 647.09 127.44 644.52 127.74 640.11 125.59 640.43 125.14 640.21 113.52 Z"
       id="Shawnee"
       fill="#baec79"
       style="fill:#7996e2;fill-opacity:1" />
    <path
       d="M 327.16 68.02 361.8 68.41 383.07 68.55 384.92 68.58 384.55 91.87 384.38 115.17 384.34 126.84 327.2 126.3 326.14 126.3 326.36 108.8 327.02 79.74 327.16 68.02 Z"
       id="Osborne"
       fill="#afe6f4"
       style="fill:#d75d5d;fill-opacity:1" />
    <path
       d="M 55.24 353.22 58.53 353.36 94.81 354.8 105.13 355.15 107.44 355.23 106.69 378.56 105.84 407.45 82.55 406.81 53.31 405.87 55.24 353.22 Z"
       id="Stevens"
       fill="#e8e5d9"
       style="fill:#d75d5d;fill-opacity:1" />
    <path
       d="M 268.82 288.95 269.26 265.59 280.87 265.68 292.47 265.94 292.3 277.57 303.92 277.85 327.09 278.1 326.78 301.53 327.77 301.54 327.6 313.92 304.34 313.59 269.5 312.84 269.64 300.68 268.54 300.66 268.82 288.95 Z"
       id="Edwards"
       fill="#cedbf8"
       style="fill:#d75d5d;fill-opacity:1" />
    <path
       d="M 686.7 112.46 685.99 85.27 687.96 85.22 699.41 84.65 728.42 84.02 728.58 85.96 729.71 122.9 728.89 122.93 729.33 134.28 720.18 134.56 717.76 134.87 714.65 136.39 711.48 136 708.36 134.28 706.97 132.81 704.98 131.91 701.09 131.88 698.54 133.42 696.58 133.56 695.12 132.19 691.47 132.14 688.02 134.15 686.48 132.76 686.46 124.1 687.02 124.1 686.7 112.46 Z"
       id="Jefferson"
       fill="#f1ded6"
       style="fill:#a5b0ff;fill-opacity:1" />
    <path
       d="M 325.5 9.81 362.25 10.17 383.48 10.3 383.4 33.62 383.07 68.55 361.8 68.41 327.16 68.02 324.89 67.98 325.5 9.81 Z"
       id="Smith"
       fill="#c1eb8a"
       style="fill:#d75d5d;fill-opacity:1" />
    <path
       d="M 525.9 348.6 549.2 348.34 559.89 348.14 572.7 348.07 592.93 347.62 593.4 370.9 593.98 411.64 571.3 411.91 539.75 412.34 527.1 412.45 526.5 378.82 526.28 359.96 525.9 348.6 Z"
       id="Cowley"
       fill="#c2def5"
       style="fill:#ffb2b2;fill-opacity:1" />
    <path
       d="M 456.02 349.18 491.21 348.83 502.86 348.55 514.57 348.7 525.9 348.6 526.28 359.96 526.5 378.82 527.1 412.45 493.28 412.76 456.72 412.91 456.68 385.19 456.37 360.96 456.1 360.96 456.02 349.18 Z"
       id="Sumner"
       fill="#d7b5b2"
       style="fill:#e27f7f;fill-opacity:1" />
    <path
       d="M 525.44 290.01 525.18 266.57 548.56 266.58 558.24 266.48 591.91 265.89 592.09 283.37 592.09 293.11 592.38 315.9 592.69 330.12 592.93 347.62 572.7 348.07 559.89 348.14 549.2 348.34 525.9 348.6 525.85 336.87 525.44 290.01 Z"
       id="Butler"
       fill="#f8f5cf"
       style="fill:#e27f7f;fill-opacity:1" />
    <path
       d="M 270.44 360.27 292.39 360.47 327.3 360.65 328.39 360.66 328.07 378.65 328.08 388 327.93 412.23 322.62 412.21 269.79 411.4 269.94 395.48 269.92 385.59 270.09 370.93 270.44 360.27 Z"
       id="Comanche"
       fill="#c6baa0"
       style="fill:#d75d5d;fill-opacity:1" />
    <path
       d="M 153.39 64.4 180.98 65.25 209.36 66.07 211.3 66.07 210.7 89.42 209.64 124.36 182.53 123.52 167.11 123.13 151.53 122.62 151.75 114.86 153.39 64.4 Z"
       id="Sheridan"
       fill="#a2f1ba"
       style="fill:#d72f30;fill-opacity:1" />
    <path
       d="M 696.58 133.56 698.54 133.42 701.09 131.88 704.98 131.91 706.97 132.81 708.36 134.28 711.48 136 714.65 136.39 717.76 134.87 720.18 134.56 729.33 134.28 729.76 144.93 731.96 143.93 737.61 144.04 738.32 145.4 740.36 146.03 741.44 144.59 740.1 142.5 741.94 141.52 743.27 142.15 744.31 174.76 732.66 175.15 697.71 176.13 697.22 158.58 696.58 133.56 Z"
       id="Douglas"
       fill="#c9e4d7"
       style="fill:#584cde;fill-opacity:1" />
    <path
       d="M 142.09 122.33 151.53 122.62 167.11 123.13 182.53 123.52 209.64 124.36 211.34 124.39 210.78 141.84 210.11 159.35 209.34 182.62 199.54 182.27 178.42 181.51 153.28 180.76 139.56 180.36 140.32 160.81 141.11 145.47 142.09 122.33 Z"
       id="Gove"
       fill="#debdab"
       style="fill:#d72f30;fill-opacity:1" />
    <path
       d="M 651.74 270.92 679.01 270.42 698.37 270.02 699.13 299.22 698.54 299.23 698.79 310.95 652.47 311.9 652.14 300.16 652.49 300.15 651.74 270.92 Z"
       id="Woodson"
       fill="#9aeab2"
       style="fill:#e27f7f;fill-opacity:1" />
    <path
       d="M 543.67 126.41 543.69 114.65 555.34 114.65 555.5 125.33 557.45 125.31 557.35 127.93 555.4 130.5 555.4 132.18 566.68 132.1 570.55 131.57 570.6 134 582.08 133.78 592.03 133.72 592.07 137.61 592.42 160.91 571.12 161.16 551.71 161.45 547.89 161.46 547.75 147.52 545.68 147.48 543.89 148.84 543.67 126.41 Z"
       id="Geary"
       fill="#d2d79d"
       style="fill:#e27f7f;fill-opacity:1" />
    <path
       d="M 384.38 115.17 396.08 115.27 439.49 115.44 442.79 115.37 442.77 127 442.9 128.94 442.94 150.33 442.95 162.02 417.71 162.1 407.95 161.98 384.68 161.93 384.73 141.6 384.99 126.84 384.34 126.84 384.38 115.17 Z"
       id="Lincoln"
       fill="#c2f0ed"
       style="fill:#d75d5d;fill-opacity:1" />
  </g>
</svg>
